<svg width="48" height="19" viewBox="0 0 48 19" fill="none" xmlns="http://www.w3.org/2000/svg">
<path d="M8.77051 2.44957C8.20794 3.09134 7.30784 3.59753 6.40774 3.52521C6.29522 2.65747 6.7359 1.73549 7.25158 1.16603C7.81415 0.506185 8.79863 0.036156 9.5956 0C9.68936 0.903901 9.32369 1.78972 8.77051 2.44957ZM9.58622 3.69696C8.28295 3.62464 7.1672 4.41104 6.54838 4.41104C5.92018 4.41104 4.9732 3.73311 3.94183 3.75119C2.60105 3.76927 1.35403 4.50143 0.669578 5.66746C-0.736833 7.99952 0.303911 11.4524 1.66344 13.3506C2.32914 14.2907 3.12611 15.3211 4.17623 15.285C5.17009 15.2488 5.56389 14.6613 6.76403 14.6613C7.97354 14.6613 8.32045 15.285 9.37057 15.2669C10.4582 15.2488 11.1427 14.3268 11.8084 13.3868C12.5678 12.3202 12.8772 11.2807 12.896 11.2265C12.8772 11.2084 10.7957 10.4401 10.777 8.12607C10.7582 6.19172 12.4178 5.26974 12.4928 5.21551C11.5552 3.87774 10.0925 3.73311 9.58622 3.69696ZM17.1152 1.07564V15.1675H19.3842V10.3497H22.5252C25.3943 10.3497 27.4101 8.45147 27.4101 5.70362C27.4101 2.95576 25.4318 1.07564 22.6002 1.07564H17.1152ZM19.3842 2.9196H22.0001C23.9691 2.9196 25.0942 3.93197 25.0942 5.71265C25.0942 7.49334 23.9691 8.51475 21.9908 8.51475H19.3842V2.9196ZM31.5544 15.2759C32.9795 15.2759 34.3016 14.5799 34.9016 13.4772H34.9485V15.1675H37.0487V8.15319C37.0487 6.11941 35.3611 4.80875 32.7639 4.80875C30.3542 4.80875 28.5728 6.13749 28.5071 7.96337H30.5511C30.7199 7.09562 31.5544 6.52617 32.6982 6.52617C34.0859 6.52617 34.8641 7.14986 34.8641 8.29781V9.07517L32.0325 9.23787C29.3979 9.39153 27.9727 10.431 27.9727 12.2388C27.9727 14.0647 29.4447 15.2759 31.5544 15.2759ZM32.1638 13.6037C30.9543 13.6037 30.1855 13.0433 30.1855 12.1846C30.1855 11.2988 30.9262 10.7835 32.342 10.7022L34.8641 10.5485V11.344C34.8641 12.6637 33.7015 13.6037 32.1638 13.6037ZM39.8522 19C42.0649 19 43.1057 18.1865 44.0152 15.7188L48 4.94434H45.6935L43.0213 13.2693H42.9744L40.3022 4.94434H37.9301L41.7743 15.2036L41.568 15.8273C41.2211 16.8849 40.6585 17.2916 39.6553 17.2916C39.4771 17.2916 39.1302 17.2735 38.9896 17.2555V18.9458C39.1209 18.9819 39.6834 19 39.8522 19Z" fill="white"/>
</svg>
