<svg width="56" height="16" viewBox="0 0 56 16" fill="none" xmlns="http://www.w3.org/2000/svg">
<g clip-path="url(#clip0_150_43)">
<path fill-rule="evenodd" clip-rule="evenodd" d="M8.54039 0C3.82173 0 0 2.82353 0 6.26244C0 8.50679 1.59889 10.4615 3.97772 11.5837L3.15877 14.371C3.11978 14.4434 3.15877 14.552 3.23677 14.6244C3.27577 14.6606 3.35376 14.6968 3.39276 14.6968C3.43175 14.6968 3.50975 14.6606 3.54875 14.6606L7.0195 12.4887C7.52646 12.5611 8.03343 12.5973 8.57939 12.5973C13.298 12.5973 17.1198 9.77376 17.1198 6.33484C17.1198 2.82353 13.298 0 8.54039 0Z" fill="black"/>
<path d="M24.3343 11.4751V15.5294H21.2145V0.57921H23.3983L23.7883 1.52039C24.4512 0.905002 25.4652 0.253418 27.0641 0.253418C30.1058 0.253418 31.5487 2.35297 31.5487 5.79188C31.5487 9.37559 29.3259 11.6561 26.1281 11.6561C25.5042 11.6923 25.0362 11.6561 24.3343 11.4751ZM24.3343 3.00455V9.44799C24.4902 9.48419 24.9192 9.52039 25.3482 9.52039C27.571 9.52039 28.429 8.07242 28.429 5.79188C28.429 3.80093 27.844 2.60636 26.0891 2.60636C25.4652 2.60636 24.8412 2.78735 24.3343 3.00455Z" fill="black"/>
<path d="M38.2952 4.81437H40.0501V4.45238C40.0501 3.25781 39.3092 2.71482 38.0613 2.71482C37.0863 2.71482 35.8774 2.96822 34.8635 3.43881L34.0056 1.52025C35.0975 0.796272 36.8134 0.325684 38.3342 0.325684C41.298 0.325684 42.9359 1.77365 42.9359 4.56098V11.4026H40.7521L40.4401 10.4976C39.1922 11.3302 38.0223 11.6922 37.0083 11.6922C34.7465 11.6922 33.4596 10.4252 33.4596 8.28948C33.4596 6.00894 35.1365 4.81437 38.2952 4.81437ZM40.0501 8.61528V6.62433H38.6072C37.0083 6.62433 36.1894 7.16731 36.1894 8.21709C36.1894 9.01347 36.6184 9.41166 37.5543 9.41166C38.4512 9.44786 39.5432 9.04966 40.0501 8.61528Z" fill="black"/>
<path d="M52.3732 10.2805C51.2813 12.9592 49.9944 14.9139 48.0835 15.9999L46.1727 14.371C47.2646 13.466 48.0835 12.5972 48.7465 11.4388L44.6128 0.977288L47.6936 0.217107L50.3454 8.6877L52.9582 0.180908L56 0.977288L52.3732 10.2805Z" fill="black"/>
</g>
<defs>
<clipPath id="clip0_150_43">
<rect width="56" height="16" fill="white"/>
</clipPath>
</defs>
</svg>
