<svg width="70" height="20" viewBox="0 0 70 20" fill="none" xmlns="http://www.w3.org/2000/svg">
<g clip-path="url(#clip0_146_55)">
<path fill-rule="evenodd" clip-rule="evenodd" d="M38.6595 20H68.8172C69.1309 20 69.4317 19.8778 69.6536 19.6604C69.8754 19.4429 70 19.148 70 18.8405V1.15937C69.9999 0.851867 69.8753 0.556979 69.6535 0.33956C69.4317 0.122142 69.1309 0 68.8172 0H38.6595C38.3458 0 38.045 0.122142 37.8232 0.33956C37.6014 0.556979 37.4767 0.851867 37.4767 1.15937V18.8405C37.4767 19.148 37.6013 19.4429 37.8231 19.6604C38.0449 19.8778 38.3458 20 38.6595 20ZM45.9013 6.61026C46.5617 6.61026 47.0467 7.1254 47.0467 7.79923C47.0467 8.47306 46.5617 8.9882 45.9013 8.9882H44.4864V6.61026H45.9013ZM45.9013 10.9698C47.7609 10.9698 49.2027 9.55624 49.2027 7.79923C49.2027 6.04223 47.7609 4.62871 45.9013 4.62871H42.6479C42.4725 4.62871 42.3304 4.76796 42.3304 4.93996V13.5649C42.3304 13.7367 42.4725 13.876 42.6479 13.876H44.1691C44.3444 13.876 44.4864 13.7367 44.4864 13.5649V10.9698H45.9013ZM55.1872 10.5735C55.1872 9.58278 54.5135 8.96185 53.5837 8.96185C52.6539 8.96185 51.9801 9.58278 51.9801 10.5735C51.9801 11.5642 52.6539 12.1851 53.5837 12.1851C54.5135 12.1851 55.1872 11.5643 55.1872 10.5735ZM57.2085 7.43465V13.7123C57.2085 13.8028 57.1338 13.8761 57.0414 13.8761H55.3543C55.2621 13.8761 55.1872 13.8028 55.1872 13.7123V13.2553C54.7425 13.7571 54.0822 14.061 53.1795 14.061C51.4141 14.061 49.9589 12.5419 49.9589 10.5735C49.9589 8.60505 51.4141 7.08591 53.1795 7.08591C54.0822 7.08591 54.7425 7.38981 55.1872 7.89181V7.43465C55.1872 7.34409 55.2621 7.27088 55.3543 7.27088H57.0414C57.1338 7.27088 57.2085 7.34409 57.2085 7.43465ZM62.3835 11.2737L63.9347 7.44305C63.9554 7.39225 63.9911 7.34869 64.0372 7.318C64.0834 7.2873 64.1379 7.27089 64.1936 7.27087H65.9146C66.0325 7.27087 66.1132 7.38753 66.0698 7.4949L62.4831 16.3528C62.4625 16.4036 62.4268 16.4472 62.3807 16.4779C62.3346 16.5086 62.2801 16.5251 62.2243 16.5251H60.5032C60.3853 16.5251 60.3046 16.4083 60.348 16.3008L61.3233 13.8923L58.6472 7.49683C58.602 7.38893 58.683 7.27087 58.8018 7.27087H60.522C60.5772 7.27089 60.6312 7.28698 60.677 7.3171C60.7229 7.34723 60.7586 7.39003 60.7796 7.44008L62.3835 11.2737Z" fill="white"/>
<path d="M11.3565 4.34162H9.6531C9.52762 4.34167 9.40729 4.39055 9.31855 4.47751C9.2298 4.56448 9.1799 4.68243 9.17981 4.80544V15.1967C9.17986 15.3197 9.22974 15.4377 9.31849 15.5247C9.40723 15.6117 9.52759 15.6606 9.6531 15.6606H11.3565C11.482 15.6606 11.6023 15.6116 11.691 15.5246C11.7797 15.4376 11.8296 15.3197 11.8296 15.1967V4.80544C11.8295 4.68246 11.7797 4.56454 11.691 4.47758C11.6023 4.39061 11.482 4.34172 11.3565 4.34162Z" fill="white"/>
<path d="M7.23981 13.0627H2.64983V4.80544C2.64973 4.68246 2.59985 4.56454 2.51115 4.47758C2.42244 4.39061 2.30216 4.34172 2.17671 4.34162H0.473113C0.347664 4.34172 0.227381 4.39061 0.138676 4.47758C0.0499705 4.56454 9.46423e-05 4.68246 0 4.80544V15.1967C4.73149e-05 15.3197 0.0499027 15.4376 0.138613 15.5246C0.227324 15.6116 0.347633 15.6606 0.473113 15.6606H7.23981C7.36529 15.6606 7.4856 15.6116 7.57431 15.5246C7.66302 15.4376 7.71287 15.3197 7.71292 15.1967V13.5265C7.71282 13.4035 7.66295 13.2856 7.57424 13.1987C7.48554 13.1117 7.36525 13.0628 7.23981 13.0627Z" fill="white"/>
<path d="M32.5555 6.93938C32.6809 6.93929 32.8012 6.89039 32.8899 6.80343C32.9786 6.71647 33.0285 6.59855 33.0286 6.47557V4.80544C33.0285 4.68246 32.9786 4.56454 32.8899 4.47758C32.8012 4.39061 32.6809 4.34172 32.5555 4.34162H25.7888C25.6633 4.34172 25.5431 4.39061 25.4543 4.47758C25.3656 4.56454 25.3158 4.68246 25.3157 4.80544V15.1967C25.3157 15.3197 25.3656 15.4376 25.4543 15.5246C25.543 15.6116 25.6633 15.6606 25.7888 15.6606H32.5555C32.681 15.6606 32.8013 15.6116 32.89 15.5246C32.9787 15.4376 33.0285 15.3197 33.0286 15.1967V13.5265C33.0285 13.4035 32.9786 13.2856 32.8899 13.1987C32.8012 13.1117 32.6809 13.0628 32.5555 13.0627H27.9655V11.2999H32.5555C32.6809 11.2998 32.8012 11.2509 32.8899 11.164C32.9786 11.077 33.0285 10.9591 33.0286 10.8361V9.16598C33.0285 9.043 32.9786 8.92508 32.8899 8.83812C32.8012 8.75116 32.6809 8.70226 32.5555 8.70217H27.9655V6.93938H32.5555Z" fill="white"/>
<path d="M23.0443 4.34163H21.3408C21.2154 4.34167 21.095 4.39055 21.0063 4.47751C20.9176 4.56448 20.8677 4.68243 20.8676 4.80544V10.8181L16.4096 4.56933C16.2833 4.39207 16.0948 4.34163 15.8856 4.34163C15.8591 4.33725 15.8322 4.34163 15.8045 4.34163H14.101C13.9756 4.34172 13.8553 4.39061 13.7666 4.47758C13.6779 4.56454 13.628 4.68246 13.6279 4.80544V15.1967C13.628 15.3197 13.6778 15.4376 13.7665 15.5246C13.8553 15.6116 13.9756 15.6606 14.101 15.6606H15.8045C15.93 15.6606 16.0503 15.6117 16.1391 15.5247C16.2278 15.4377 16.2777 15.3197 16.2778 15.1967V8.91691L20.9256 15.4319C20.9422 15.4554 20.9608 15.4766 20.9801 15.4965C21.0602 15.5888 21.1763 15.6515 21.3074 15.6606H21.3928H23.0443C23.1698 15.6606 23.2901 15.6116 23.3788 15.5246C23.4675 15.4376 23.5173 15.3197 23.5174 15.1967V4.80544C23.5173 4.68246 23.4674 4.56454 23.3787 4.47758C23.29 4.39061 23.1697 4.34172 23.0443 4.34163Z" fill="white"/>
</g>
<defs>
<clipPath id="clip0_146_55">
<rect width="70" height="20" fill="white"/>
</clipPath>
</defs>
</svg>
